<?xml version="1.0" ?><!DOCTYPE svg  PUBLIC '-//W3C//DTD SVG 1.1//EN'  'http://www.w3.org/Graphics/SVG/1.1/DTD/svg11.dtd'><svg enable-background="new 0 0 32 32" version="1.1" viewBox="0 0 32 32" xml:space="preserve" xmlns="http://www.w3.org/2000/svg" xmlns:xlink="http://www.w3.org/1999/xlink"><g id="Desktop25"/><g id="Desktop24"/><g id="Desktop23"/><g id="Desktop22"/><g id="Desktop21"/><g id="Desktop20"/><g id="Desktop19"/><g id="Desktop18"/><g id="Desktop17"/><g id="Desktop16"/><g id="Desktop15"/><g id="Desktop14"/><g id="Desktop13"><g><path d="M11,6v20c0,0.55-0.45,1-1,1H2c-0.55,0-1-0.45-1-1V6c0-0.55,0.45-1,1-1h8C10.55,5,11,5.45,11,6z" fill="#3F51B5"/></g><g><path d="M31,11v7c0,0.55-0.45,1-1,1H14c-0.55,0-1-0.45-1-1v-7c0-1.1,0.9-2,2-2h14C30.1,9,31,9.9,31,11z" fill="#2197F3"/></g><path d="M25,25h-2v-3c0-0.5527-0.4473-1-1-1s-1,0.4473-1,1v3h-2c-0.5527,0-1,0.4473-1,1s0.4473,1,1,1h6   c0.5527,0,1-0.4473,1-1S25.5527,25,25,25z" fill="#FFC10A"/><g><path d="M1,16h10v-2H1V16z M1,9v2h10V9H1z" fill="#FFFFFF"/></g><g><circle cx="6" cy="20" fill="#FFC10A" r="2"/></g><g><path d="M31,17v4c0,1.1-0.9,2-2,2H15c-1.1,0-2-0.9-2-2v-4H31z" fill="#3F51B5"/></g></g><g id="Desktop12"/><g id="Desktop11"/><g id="Desktop10"/><g id="Desktop09"/><g id="Desktop08"/><g id="Desktop07"/><g id="Desktop06"/><g id="Desktop05"/><g id="Desktop04"/><g id="Desktop03"/><g id="Desktop02"/><g id="Desktop01"/></svg>